# xmcd
#
# Track frame offsets:
#	150
#	10379
#	43042
#	72359
#	105403
#	119621
#	148055
#	180300
#	210889
#	225762
#	253284
#	267131
#	297605
#	329075
#	349067
#
# Disc length: 4770 seconds
#
# Revision: 0
# Processed by: cddbd v1.5.1PL0 Copyright (c) Steve Scherf et al.
# Submitted via: audiograbber 1.83.01
#
DISCID=e212a00f
DTITLE=FUTURE BREEZE - Second Life
DYEAR=2005
DGENRE=Dream
TTITLE0=Intro
TTITLE1=Second Life
TTITLE2=Smile 2004
TTITLE3=Push
TTITLE4=Mind In Motion
TTITLE5=Disco Shit
TTITLE6=Temple Of Dreams
TTITLE7=Salvation
TTITLE8=Ocean Of Eternity
TTITLE9=Wavelab
TTITLE10=Heaven Above
TTITLE11=The Darkness
TTITLE12=Out Of The Blue
TTITLE13=Feel Alife
TTITLE14=Outro
EXTD=Grabbing 13.09.2005 from LittleBoy
EXTT0=
EXTT1=
EXTT2=
EXTT3=
EXTT4=
EXTT5=
EXTT6=
EXTT7=
EXTT8=
EXTT9=
EXTT10=
EXTT11=
EXTT12=
EXTT13=
EXTT14=
PLAYORDER=
